<?xml version="1.0" encoding="utf-8"?>
<!-- Generator: Adobe Illustrator 15.0.0, SVG Export Plug-In . SVG Version: 6.00 Build 0)  -->
<!DOCTYPE svg PUBLIC "-//W3C//DTD SVG 1.1//EN" "http://www.w3.org/Graphics/SVG/1.1/DTD/svg11.dtd">
<svg version="1.1" id="Layer_1" xmlns="http://www.w3.org/2000/svg" xmlns:xlink="http://www.w3.org/1999/xlink" x="0px" y="0px"
	 width="37px" height="10.5px" viewBox="0 -0.785 37 10.5" enable-background="new 0 -0.785 37 10.5" xml:space="preserve">
<path fill="#2C2F7F" d="M18.5,9c-3.121,0-4.648-2.005-5.876-3.616C11.463,3.861,10.734,3,9.25,3C7.749,3,7.002,3.873,5.813,5.416
	C4.582,7.013,3.05,9,0,9V6c1.501,0,2.248-0.873,3.437-2.416C4.668,1.987,6.2,0,9.25,0c3.042,0,4.549,1.977,5.76,3.566
	C16.195,5.12,16.941,6,18.5,6c1.557,0,2.302-0.879,3.482-2.432C23.192,1.979,24.697,0,27.745,0c3.047,0,4.581,1.96,5.812,3.536
	c1.189,1.52,1.936,2.38,3.442,2.38v3c-3.042,0-4.574-1.959-5.805-3.532C30.004,3.861,29.257,3,27.745,3
	c-1.488,0-2.216,0.862-3.375,2.385C23.145,6.995,21.62,9,18.5,9z"/>
</svg>
