<?xml version="1.0" encoding="utf-8"?>
<!-- Generator: Adobe Illustrator 16.0.0, SVG Export Plug-In . SVG Version: 6.00 Build 0)  -->
<!DOCTYPE svg PUBLIC "-//W3C//DTD SVG 1.1//EN" "http://www.w3.org/Graphics/SVG/1.1/DTD/svg11.dtd">
<svg version="1.1" id="Layer_1" xmlns="http://www.w3.org/2000/svg" xmlns:xlink="http://www.w3.org/1999/xlink" x="0px" y="0px"
	 width="789.04px" height="506.65px" viewBox="0 0 789.04 506.65" enable-background="new 0 0 789.04 506.65" xml:space="preserve">
<path d="M267.28,293.29c0,38.627-31.313,69.939-69.94,69.939c-38.626,0-69.94-31.312-69.94-69.939s31.313-69.94,69.94-69.94l0,0
	C235.967,223.35,267.28,254.663,267.28,293.29z M591.62,223.35c-38.627-0.022-69.957,31.273-69.98,69.9
	c-0.021,38.627,31.273,69.958,69.9,69.979c38.627,0.022,69.959-31.272,69.98-69.899c0-0.014,0-0.026,0-0.04
	C661.52,254.679,630.231,223.372,591.62,223.35z M788.84,293.29c0,108.88-88.34,197.14-197.221,197.14
	c-49.676,0.072-97.535-18.68-133.939-52.479l-63.161,68.7L331.32,437.88c-36.407,33.844-84.293,52.623-134,52.55
	c-108.88,0-197.14-88.26-197.14-197.14c-0.058-55.466,23.308-108.378,64.34-145.7L0.01,77.4h143.36
	c151.666-103.2,351.003-103.2,502.669,0h143l-64.52,70.19C765.545,184.915,788.903,237.827,788.84,293.29L788.84,293.29z
	 M330.76,293.29c0.006-73.686-59.724-133.424-133.41-133.43c-73.686-0.005-133.425,59.724-133.43,133.411
	c-0.005,73.686,59.724,133.424,133.41,133.43c0.003,0,0.007,0,0.01,0C271.02,426.694,330.749,366.97,330.76,293.29L330.76,293.29z
	 M542.571,94.12c-94.758-39.487-201.363-39.487-296.121,0c84.21,32.2,148.069,107.53,148.069,195.33
	C394.52,201.66,458.37,126.33,542.571,94.12z M725.03,293.29c0-73.68-59.729-133.41-133.41-133.41
	c-73.68,0-133.41,59.73-133.41,133.41c0,73.68,59.73,133.41,133.41,133.41C665.297,426.694,725.024,366.968,725.03,293.29z"/>
</svg>
